#define icon_width 246
#define icon_height 205
static unsigned char icon_bits[] = {
   0x00, 0x00, 0x00, 0x00, 0x00, 0x00, 0x00, 0x00, 0x00, 0x00, 0x00, 0x00,
   0x00, 0x00, 0x00, 0x00, 0x00, 0x00, 0x00, 0x00, 0x00, 0x00, 0x00, 0x00,
   0x00, 0x00, 0x00, 0x00, 0x00, 0x00, 0x00, 0x00, 0x00, 0x00, 0x00, 0x00,
   0x00, 0x00, 0x00, 0x00, 0x00, 0x00, 0xff, 0x1f, 0x00, 0x00, 0x00, 0x00,
   0x00, 0x00, 0x00, 0x00, 0x00, 0x00, 0x00, 0x00, 0x00, 0x00, 0x00, 0x00,
   0x00, 0x00, 0x00, 0x00, 0x00, 0x00, 0x00, 0x00, 0x00, 0x00, 0x00, 0x00,
   0xe8, 0xff, 0xff, 0x00, 0x00, 0x00, 0x00, 0x00, 0x00, 0x00, 0x00, 0x00,
   0x00, 0x00, 0x00, 0x00, 0x00, 0x00, 0x00, 0x00, 0x00, 0x00, 0x00, 0x00,
   0x00, 0x00, 0x00, 0x00, 0x00, 0x00, 0x80, 0x7f, 0xff, 0xff, 0x03, 0x00,
   0x00, 0x00, 0x00, 0x00, 0x00, 0x00, 0x00, 0x00, 0x00, 0x00, 0x00, 0x00,
   0x00, 0x00, 0x00, 0x00, 0x00, 0x00, 0x00, 0x00, 0x00, 0x00, 0x00, 0x00,
   0x00, 0xf0, 0xff, 0xef, 0xff, 0x0f, 0x00, 0x00, 0x00, 0x00, 0x00, 0x00,
   0x00, 0x00, 0x00, 0x00, 0x00, 0x00, 0x00, 0x00, 0x00, 0x00, 0x00, 0x00,
   0x00, 0x00, 0x00, 0x00, 0x00, 0x00, 0x00, 0x00, 0xfe, 0xbe, 0xef, 0xff,
   0x3f, 0x00, 0x00, 0x00, 0x00, 0x00, 0x00, 0x00, 0x00, 0x00, 0x00, 0x00,
   0x00, 0x00, 0x00, 0x00, 0x00, 0x00, 0x00, 0x00, 0x00, 0x00, 0x00, 0x00,
   0x00, 0x00, 0x80, 0xff, 0xde, 0xfb, 0xff, 0x7f, 0x00, 0x00, 0x00, 0x00,
   0x00, 0x00, 0x00, 0x00, 0x00, 0x00, 0x00, 0x00, 0x00, 0x00, 0x00, 0x00,
   0x00, 0x00, 0x00, 0x00, 0x00, 0x00, 0x00, 0x00, 0x00, 0xe0, 0x7f, 0xbf,
   0xfb, 0xff, 0xff, 0x00, 0x00, 0x00, 0x00, 0x00, 0x00, 0x00, 0x00, 0x00,
   0x00, 0x00, 0x00, 0x00, 0x00, 0x00, 0x00, 0x00, 0x00, 0x00, 0x00, 0x00,
   0x00, 0x00, 0x00, 0x00, 0xb0, 0x7f, 0xaf, 0xfd, 0xe7, 0xff, 0x03, 0x00,
   0x00, 0x00, 0x00, 0x00, 0x00, 0x00, 0x00, 0x00, 0x00, 0x00, 0x00, 0x00,
   0x00, 0x00, 0x00, 0x00, 0x00, 0x00, 0x00, 0x00, 0x00, 0x00, 0x00, 0x5c,
   0x7b, 0xdf, 0xfe, 0xfd, 0xff, 0x07, 0x00, 0x00, 0x00, 0x00, 0x00, 0x00,
   0x00, 0x00, 0x00, 0x00, 0x00, 0x00, 0x00, 0x00, 0x00, 0x00, 0x00, 0x00,
   0x00, 0x00, 0x00, 0x00, 0x00, 0x00, 0xae, 0xf7, 0xdf, 0x3f, 0x7e, 0xff,
   0x1f, 0x00, 0x00, 0x00, 0x00, 0x00, 0x00, 0x00, 0x00, 0x00, 0x00, 0x00,
   0x00, 0x00, 0x00, 0x00, 0x00, 0x00, 0x00, 0x00, 0x00, 0x00, 0x00, 0x00,
   0x80, 0x17, 0x77, 0xde, 0x7e, 0xd7, 0xff, 0x3f, 0x00, 0x00, 0x00, 0x00,
   0x00, 0x00, 0x00, 0x00, 0x00, 0x00, 0x00, 0x00, 0x00, 0x00, 0x00, 0x00,
   0x00, 0x00, 0x00, 0x00, 0x00, 0x00, 0x00, 0xc0, 0xbb, 0xf5, 0x3f, 0x9f,
   0xea, 0xff, 0x7f, 0x00, 0x00, 0x00, 0x00, 0x00, 0x00, 0x00, 0x00, 0x00,
   0x00, 0x00, 0x00, 0x00, 0x00, 0x00, 0x00, 0x00, 0x00, 0x00, 0x00, 0x00,
   0x00, 0x00, 0xe0, 0x1b, 0xe3, 0x7e, 0xbf, 0xf8, 0xff, 0xff, 0x00, 0x00,
   0x00, 0x00, 0x00, 0x00, 0x00, 0x00, 0x00, 0x00, 0x00, 0x00, 0x00, 0x00,
   0x00, 0x00, 0x00, 0x00, 0x00, 0x00, 0x00, 0x00, 0x00, 0xf8, 0xb9, 0xe7,
   0xbe, 0x3e, 0xfe, 0xff, 0xff, 0x00, 0x00, 0x00, 0x00, 0x00, 0x00, 0x00,
   0x00, 0x00, 0x00, 0x00, 0x00, 0x00, 0x00, 0x00, 0x00, 0x00, 0x00, 0x00,
   0x00, 0x00, 0x00, 0x00, 0xfc, 0x3b, 0xc7, 0x7c, 0xbf, 0xfe, 0xff, 0xff,
   0x01, 0x00, 0x00, 0x00, 0x00, 0x00, 0x00, 0x00, 0x00, 0x00, 0x00, 0x00,
   0x00, 0x00, 0x00, 0x00, 0x00, 0x00, 0x00, 0x00, 0x00, 0x00, 0x00, 0xfc,
   0x3b, 0xd6, 0xb9, 0x14, 0xff, 0xff, 0xff, 0x03, 0x00, 0x00, 0x00, 0x00,
   0x00, 0x00, 0x00, 0x00, 0x00, 0x00, 0x00, 0x00, 0x00, 0x00, 0x00, 0x00,
   0x00, 0x00, 0x00, 0x00, 0x00, 0x00, 0x7a, 0xfb, 0x8e, 0xfb, 0xb8, 0xff,
   0xff, 0xff, 0x07, 0x00, 0x00, 0x00, 0x00, 0x00, 0x00, 0x00, 0x00, 0x00,
   0x00, 0x00, 0x00, 0x00, 0x00, 0x00, 0x00, 0x00, 0x00, 0x00, 0x00, 0x00,
   0x00, 0x7b, 0x3b, 0xae, 0x3b, 0xcd, 0xff, 0xff, 0xff, 0x0f, 0x00, 0x00,
   0x00, 0x00, 0x00, 0x00, 0x00, 0x00, 0x00, 0x00, 0x00, 0x00, 0x00, 0x00,
   0x00, 0x00, 0x00, 0x00, 0x00, 0x00, 0x00, 0x00, 0x73, 0xf7, 0x4c, 0xf3,
   0xcc, 0xff, 0xff, 0xff, 0x1f, 0x00, 0x00, 0x00, 0x00, 0x00, 0x00, 0x00,
   0x00, 0x00, 0x00, 0x00, 0x00, 0x00, 0x00, 0x00, 0x00, 0x00, 0x00, 0x00,
   0x00, 0x00, 0xc0, 0xed, 0x7e, 0xdc, 0x77, 0xf6, 0xff, 0xff, 0xff, 0x3f,
   0x00, 0x00, 0x00, 0x00, 0x00, 0x00, 0x00, 0x00, 0x00, 0x00, 0x00, 0x00,
   0x00, 0x00, 0x00, 0x00, 0x00, 0x00, 0x00, 0x00, 0x00, 0xc0, 0x71, 0xfd,
   0x1d, 0xf7, 0xe6, 0xf7, 0xff, 0xff, 0x7f, 0x00, 0x00, 0x00, 0x00, 0x00,
   0x00, 0x00, 0x00, 0x00, 0x00, 0x00, 0x00, 0x00, 0x00, 0x00, 0x00, 0x00,
   0x00, 0x00, 0x00, 0x00, 0xe0, 0xea, 0xfe, 0xd8, 0x33, 0x77, 0xfd, 0xff,
   0xff, 0x7f, 0x00, 0x00, 0x00, 0x00, 0x00, 0x00, 0x00, 0x00, 0x00, 0x00,
   0x00, 0x00, 0x00, 0x00, 0x00, 0x00, 0x00, 0x00, 0x00, 0x00, 0x00, 0xe0,
   0xe9, 0xfa, 0x59, 0x73, 0x87, 0xfa, 0xff, 0xff, 0x7f, 0x00, 0x00, 0x00,
   0x00, 0x00, 0x00, 0x00, 0x00, 0x00, 0x00, 0x00, 0x00, 0x00, 0x00, 0x00,
   0x00, 0x00, 0x00, 0x00, 0x00, 0x00, 0x70, 0xd0, 0xf5, 0x9b, 0xb7, 0x53,
   0xff, 0xff, 0xff, 0xff, 0x00, 0x00, 0x00, 0x00, 0x00, 0x00, 0x00, 0x00,
   0x00, 0x00, 0x00, 0x00, 0x00, 0x00, 0x00, 0x00, 0x00, 0x00, 0x00, 0x00,
   0x00, 0x70, 0xb5, 0xeb, 0x13, 0xb3, 0x83, 0xff, 0xff, 0xff, 0xff, 0x00,
   0x00, 0x00, 0x00, 0x00, 0x00, 0x00, 0x00, 0x00, 0x00, 0x00, 0x00, 0x00,
   0x00, 0x00, 0x00, 0x00, 0x00, 0x00, 0x00, 0x00, 0x70, 0x31, 0xe7, 0xd3,
   0xb7, 0xeb, 0xff, 0xff, 0xff, 0xff, 0x00, 0x00, 0x00, 0x00, 0x00, 0x00,
   0x00, 0x00, 0x00, 0x00, 0x00, 0x00, 0x00, 0x00, 0x00, 0x00, 0x00, 0x00,
   0x00, 0x00, 0x00, 0x78, 0x65, 0xce, 0x17, 0x73, 0x53, 0xfd, 0xff, 0xff,
   0xff, 0x01, 0x00, 0x00, 0x00, 0x00, 0x00, 0x00, 0x00, 0x00, 0x00, 0x00,
   0x00, 0x00, 0x00, 0x00, 0x00, 0x00, 0x00, 0x00, 0x00, 0x00, 0xac, 0xe8,
   0x9c, 0x87, 0xb3, 0x49, 0xff, 0xff, 0xff, 0xff, 0x03, 0x00, 0x00, 0x00,
   0x00, 0x00, 0x00, 0x00, 0x00, 0x00, 0x00, 0x00, 0x00, 0x00, 0x00, 0x00,
   0x00, 0x00, 0x00, 0x00, 0x00, 0xac, 0xfd, 0x3b, 0x17, 0xb7, 0xc9, 0xff,
   0xff, 0xff, 0xff, 0x03, 0x00, 0x00, 0x00, 0x00, 0x00, 0x00, 0x00, 0x00,
   0x00, 0x00, 0x00, 0x00, 0x00, 0x00, 0x00, 0x00, 0x00, 0x00, 0x00, 0x00,
   0x56, 0x75, 0x99, 0x8f, 0xb2, 0xf1, 0xff, 0xff, 0xff, 0xff, 0x07, 0x00,
   0x00, 0x00, 0x00, 0x00, 0x00, 0x00, 0x00, 0x00, 0x00, 0x00, 0x00, 0x00,
   0x00, 0x00, 0x00, 0x00, 0x00, 0x00, 0x00, 0xae, 0x6a, 0x31, 0x16, 0xb7,
   0xf2, 0xff, 0xff, 0xff, 0xff, 0x07, 0x00, 0x00, 0x00, 0x00, 0x00, 0x00,
   0x00, 0x00, 0x00, 0x00, 0x00, 0x00, 0x00, 0x00, 0x00, 0x00, 0x00, 0x00,
   0x00, 0x00, 0xfe, 0xff, 0x65, 0x2e, 0xd3, 0xf8, 0x7f, 0xfd, 0xff, 0xff,
   0x0f, 0x00, 0x00, 0x00, 0x00, 0x00, 0x00, 0x00, 0x00, 0x00, 0x00, 0x00,
   0x00, 0x00, 0x00, 0x00, 0x00, 0x00, 0x00, 0x00, 0x00, 0xfe, 0xff, 0xc7,
   0x14, 0xdb, 0x7e, 0x5f, 0xd5, 0xff, 0xff, 0x0f, 0x00, 0x00, 0x00, 0x00,
   0x00, 0x00, 0x00, 0x00, 0x00, 0x00, 0x00, 0x00, 0x00, 0x00, 0x00, 0x00,
   0x00, 0x00, 0x00, 0x00, 0xff, 0xff, 0x6f, 0x55, 0x6b, 0xce, 0xff, 0x7f,
   0xdd, 0xff, 0x1f, 0x00, 0x00, 0x00, 0x00, 0x00, 0x00, 0x00, 0x00, 0x00,
   0x00, 0x00, 0x00, 0x00, 0x00, 0x00, 0x00, 0x00, 0x00, 0x00, 0x00, 0xff,
   0xfb, 0x8f, 0x11, 0xab, 0xf5, 0xff, 0xfb, 0x55, 0xff, 0x1f, 0x00, 0x00,
   0x00, 0x00, 0x00, 0x00, 0x00, 0x00, 0x00, 0x00, 0x00, 0x00, 0x00, 0x00,
   0x00, 0x00, 0x00, 0x00, 0x00, 0x00, 0xbf, 0xd6, 0x33, 0x11, 0x19, 0xba,
   0xae, 0x5f, 0xbf, 0xfe, 0x3f, 0x00, 0x00, 0x00, 0x00, 0x00, 0x00, 0x00,
   0x00, 0x00, 0x00, 0x00, 0x00, 0x00, 0x00, 0x00, 0x00, 0x00, 0x00, 0x00,
   0x00, 0xff, 0xff, 0x4f, 0x32, 0x91, 0x2a, 0x00, 0xfc, 0x7a, 0xfd, 0x3f,
   0x00, 0x00, 0x00, 0x00, 0x00, 0x00, 0x00, 0x00, 0x00, 0x00, 0x00, 0x00,
   0x00, 0x00, 0x00, 0x00, 0x00, 0x00, 0x00, 0x00, 0xff, 0xff, 0x3f, 0xa5,
   0x2d, 0x00, 0x00, 0xe0, 0xf7, 0xff, 0x3f, 0x00, 0x00, 0x00, 0x00, 0x00,
   0x00, 0x00, 0x00, 0x00, 0x00, 0x00, 0x00, 0x00, 0x00, 0x00, 0x00, 0x00,
   0x00, 0x00, 0x00, 0xff, 0xff, 0xbd, 0x24, 0x01, 0x80, 0x88, 0x80, 0xaf,
   0xff, 0x7f, 0x00, 0x00, 0x00, 0x00, 0x00, 0x00, 0x00, 0x00, 0x00, 0x00,
   0x00, 0x00, 0x00, 0x00, 0x00, 0x00, 0x00, 0x00, 0x00, 0x80, 0xff, 0xff,
   0xbb, 0x92, 0x40, 0x00, 0x00, 0x04, 0x5f, 0xfd, 0x7f, 0x00, 0x00, 0x00,
   0x00, 0x00, 0x00, 0x00, 0x00, 0x00, 0x00, 0x00, 0x00, 0x00, 0x00, 0x00,
   0x00, 0x00, 0x00, 0x00, 0x00, 0x1f, 0xf8, 0xab, 0x92, 0x01, 0x04, 0x00,
   0x00, 0x7c, 0xf5, 0xff, 0x00, 0x00, 0x00, 0x00, 0x00, 0x00, 0x00, 0x00,
   0x00, 0x00, 0x00, 0x00, 0x00, 0x00, 0x00, 0x00, 0x00, 0x00, 0x00, 0x80,
   0xf7, 0xa3, 0xbe, 0x02, 0x00, 0x00, 0x00, 0x10, 0x74, 0xe9, 0xff, 0x00,
   0x00, 0x00, 0x00, 0x00, 0x00, 0x00, 0x00, 0x00, 0x00, 0x00, 0x00, 0x00,
   0x00, 0x00, 0x00, 0x00, 0x00, 0x00, 0x80, 0xff, 0xaf, 0xa9, 0x04, 0x00,
   0x00, 0x00, 0x00, 0xe0, 0xd5, 0xff, 0x00, 0x00, 0x00, 0x00, 0x00, 0x00,
   0x00, 0x00, 0x00, 0x00, 0x00, 0x00, 0x00, 0x00, 0x00, 0x00, 0x00, 0x00,
   0x00, 0xc0, 0x3f, 0x5f, 0x17, 0x10, 0x00, 0x00, 0x00, 0x00, 0xd0, 0xcb,
   0xff, 0x01, 0x00, 0x00, 0x00, 0x00, 0x00, 0x00, 0x00, 0x00, 0x00, 0x00,
   0x00, 0x00, 0x00, 0x00, 0x00, 0x00, 0x00, 0x00, 0xc0, 0xef, 0x78, 0x24,
   0x00, 0x00, 0x00, 0x00, 0x00, 0x01, 0x5f, 0xff, 0x01, 0x00, 0x00, 0x00,
   0x00, 0x00, 0x00, 0x00, 0x00, 0x00, 0x00, 0x00, 0x00, 0x00, 0x00, 0x00,
   0x00, 0x00, 0x00, 0xc0, 0xff, 0x2b, 0x00, 0x00, 0x00, 0x00, 0x00, 0x00,
   0xa0, 0xba, 0xff, 0x01, 0x00, 0x00, 0x00, 0x00, 0x00, 0x00, 0x00, 0x00,
   0x00, 0x00, 0x00, 0x00, 0x00, 0x00, 0x00, 0x00, 0x00, 0x00, 0xc0, 0xef,
   0x4b, 0x00, 0x00, 0x01, 0x00, 0x00, 0x00, 0x00, 0xf5, 0xff, 0x03, 0x00,
   0x00, 0x00, 0x00, 0x00, 0x00, 0x00, 0x00, 0x00, 0x00, 0x00, 0x00, 0x00,
   0x00, 0x00, 0x00, 0x00, 0x00, 0xc0, 0x11, 0x06, 0x00, 0x00, 0x00, 0x00,
   0x00, 0x00, 0x40, 0x55, 0xff, 0x13, 0x00, 0x00, 0x00, 0x00, 0x00, 0x00,
   0x00, 0x00, 0x00, 0x00, 0x00, 0x00, 0x00, 0x00, 0x00, 0x00, 0x00, 0x00,
   0xc0, 0xfb, 0x0e, 0x00, 0x00, 0x00, 0x00, 0x00, 0x00, 0x01, 0xaa, 0xfe,
   0x6f, 0x00, 0x00, 0x00, 0x00, 0x00, 0x00, 0x00, 0x00, 0x00, 0x00, 0x00,
   0x00, 0x00, 0x00, 0x00, 0x00, 0x00, 0x00, 0xc0, 0xff, 0x80, 0x00, 0x00,
   0x00, 0x00, 0x00, 0x00, 0x40, 0xa9, 0xfe, 0xd1, 0x01, 0x00, 0x00, 0x00,
   0x00, 0x00, 0x00, 0x00, 0x00, 0x00, 0x00, 0x00, 0x00, 0x00, 0x00, 0x00,
   0x00, 0x00, 0xc0, 0x1f, 0x05, 0x00, 0x00, 0x00, 0x00, 0x00, 0x00, 0x02,
   0x95, 0xfe, 0x4b, 0x05, 0x00, 0x00, 0x00, 0x00, 0x00, 0x00, 0x00, 0x00,
   0x00, 0x00, 0x00, 0x00, 0x00, 0x00, 0x00, 0x00, 0x00, 0x80, 0xa7, 0x00,
   0x04, 0x00, 0x00, 0x00, 0x00, 0x00, 0x00, 0x52, 0xfe, 0x55, 0x18, 0x00,
   0x00, 0x00, 0x00, 0x00, 0x00, 0x00, 0x00, 0x00, 0x00, 0x00, 0x00, 0x00,
   0x00, 0x00, 0x00, 0x00, 0xc0, 0x27, 0x10, 0x00, 0x00, 0x00, 0x00, 0x00,
   0x00, 0x40, 0x54, 0xfd, 0x48, 0x40, 0x00, 0x00, 0x00, 0x00, 0x00, 0x00,
   0x00, 0x00, 0x00, 0x00, 0x00, 0x00, 0x00, 0x00, 0x00, 0x00, 0x00, 0x80,
   0xab, 0x00, 0x00, 0x00, 0x00, 0x00, 0x00, 0x20, 0x02, 0xa5, 0xfe, 0x35,
   0x00, 0x01, 0x00, 0x00, 0x00, 0x00, 0x00, 0x00, 0x00, 0x00, 0x00, 0x00,
   0x00, 0x00, 0x00, 0x00, 0x00, 0x00, 0xc0, 0x53, 0x20, 0x40, 0x00, 0x00,
   0x00, 0x00, 0x01, 0x08, 0x94, 0x7c, 0x65, 0x00, 0x00, 0x00, 0x00, 0x00,
   0x00, 0x00, 0x00, 0x00, 0x00, 0x00, 0x00, 0x00, 0x00, 0x00, 0x00, 0x00,
   0x00, 0x80, 0x5d, 0x00, 0x00, 0x00, 0x00, 0x00, 0x00, 0x00, 0x40, 0xa9,
   0xfa, 0x2a, 0x00, 0x10, 0x00, 0x00, 0x00, 0x00, 0x00, 0x00, 0x00, 0x00,
   0x00, 0x00, 0x00, 0x00, 0x00, 0x00, 0x00, 0x00, 0x80, 0xaf, 0x02, 0x00,
   0x00, 0x00, 0x00, 0x00, 0x00, 0x00, 0x92, 0xfa, 0x28, 0x00, 0x00, 0x00,
   0x00, 0x00, 0x00, 0x00, 0x00, 0x00, 0x00, 0x00, 0x00, 0x00, 0x00, 0x00,
   0x00, 0x00, 0x00, 0xc0, 0x47, 0x00, 0x00, 0x00, 0x00, 0x00, 0x00, 0x20,
   0x00, 0xa5, 0xf2, 0x2a, 0x00, 0x20, 0x00, 0x00, 0x00, 0x00, 0x00, 0x00,
   0x00, 0x00, 0x00, 0x00, 0x00, 0x00, 0x00, 0x00, 0x00, 0x00, 0x80, 0x2f,
   0x08, 0x00, 0x00, 0x00, 0x00, 0x00, 0x00, 0x02, 0x28, 0xf6, 0x29, 0x00,
   0x00, 0x00, 0x00, 0x00, 0x00, 0x00, 0x00, 0x00, 0x00, 0x00, 0x00, 0x00,
   0x00, 0x00, 0x00, 0x00, 0x00, 0xc0, 0x13, 0x00, 0x00, 0x00, 0x00, 0x00,
   0x00, 0x00, 0x00, 0xca, 0xf4, 0x2a, 0x00, 0x40, 0x00, 0x00, 0x00, 0x00,
   0x00, 0x00, 0x00, 0x00, 0x00, 0x00, 0x00, 0x00, 0x00, 0x00, 0x00, 0x00,
   0x80, 0xab, 0x10, 0x00, 0x00, 0x00, 0x00, 0x00, 0x21, 0xf0, 0x1f, 0xd5,
   0x24, 0x00, 0x00, 0x00, 0x00, 0x00, 0x00, 0x00, 0x00, 0x00, 0x00, 0x00,
   0x00, 0x00, 0x00, 0x00, 0x00, 0x00, 0x00, 0x80, 0x17, 0x00, 0x00, 0x00,
   0x00, 0x00, 0x00, 0x00, 0xbc, 0xaa, 0xd2, 0x15, 0x00, 0x40, 0x00, 0x00,
   0x00, 0x00, 0x00, 0x00, 0x00, 0x00, 0x00, 0x00, 0x00, 0x00, 0x00, 0x00,
   0x00, 0x00, 0x00, 0x33, 0x00, 0x00, 0x00, 0x00, 0x00, 0x04, 0x02, 0x1e,
   0xa0, 0xd4, 0x12, 0x00, 0x40, 0x00, 0x00, 0x00, 0x00, 0x00, 0x00, 0x00,
   0x00, 0x00, 0x00, 0x00, 0x00, 0x00, 0x00, 0x00, 0x00, 0x00, 0x4b, 0x44,
   0x00, 0x00, 0x00, 0x00, 0x00, 0xc0, 0x07, 0x48, 0xd5, 0x04, 0x00, 0x00,
   0x28, 0x00, 0x00, 0x00, 0x00, 0x00, 0x00, 0x00, 0x00, 0x00, 0x00, 0x00,
   0x00, 0x00, 0x00, 0x00, 0x00, 0x5e, 0x00, 0x10, 0x00, 0x00, 0x00, 0x20,
   0xe0, 0x01, 0x90, 0xd4, 0x0a, 0x00, 0x40, 0x04, 0x00, 0x00, 0x00, 0x00,
   0x00, 0x00, 0x00, 0x00, 0x00, 0x00, 0x00, 0x00, 0x00, 0x00, 0x00, 0x00,
   0x2e, 0x00, 0x00, 0x02, 0x00, 0x00, 0x00, 0x78, 0x00, 0x54, 0xd2, 0x0a,
   0x00, 0x00, 0x50, 0x00, 0x00, 0x00, 0x00, 0x00, 0x00, 0x00, 0x00, 0x00,
   0x00, 0x00, 0x00, 0x00, 0x00, 0x00, 0x00, 0x5c, 0x41, 0x00, 0x00, 0x00,
   0x20, 0x82, 0x7c, 0x00, 0x48, 0xd2, 0x09, 0x00, 0x40, 0x62, 0x00, 0x00,
   0x00, 0x00, 0x00, 0x00, 0x00, 0x00, 0x00, 0x00, 0x00, 0x00, 0x00, 0x00,
   0x00, 0x00, 0x5c, 0x08, 0x00, 0x00, 0x80, 0x00, 0x00, 0x1e, 0xa0, 0x12,
   0xe8, 0x12, 0x00, 0x00, 0x51, 0x00, 0x00, 0x00, 0x00, 0x00, 0x00, 0x00,
   0x00, 0x00, 0x00, 0x00, 0x00, 0x00, 0x00, 0x00, 0x00, 0xa8, 0x00, 0x00,
   0x00, 0x00, 0x02, 0x08, 0x3f, 0x5c, 0x2b, 0xc0, 0x05, 0x00, 0x00, 0x61,
   0x00, 0x00, 0x00, 0x00, 0x00, 0x00, 0x00, 0x00, 0x00, 0x00, 0x00, 0x00,
   0x00, 0x00, 0x00, 0x00, 0x50, 0x81, 0x00, 0x10, 0x01, 0x00, 0x40, 0x8b,
   0x42, 0x06, 0xd0, 0x0a, 0x00, 0xc0, 0x60, 0x00, 0x00, 0x00, 0x00, 0x00,
   0x00, 0x00, 0x00, 0x00, 0x00, 0x00, 0x00, 0x00, 0x00, 0x00, 0x00, 0xf0,
   0x08, 0x10, 0x01, 0x10, 0x48, 0x80, 0x1a, 0xf8, 0x07, 0xc0, 0x14, 0x00,
   0x80, 0x60, 0x00, 0x00, 0x00, 0x00, 0x00, 0x00, 0x00, 0x00, 0x00, 0x00,
   0x00, 0x00, 0x00, 0x00, 0x00, 0x00, 0xe0, 0x00, 0x02, 0x00, 0x00, 0x00,
   0x68, 0x0d, 0xdf, 0x43, 0xd0, 0x22, 0x00, 0xc0, 0x64, 0x00, 0x00, 0x00,
   0x00, 0x00, 0x00, 0x00, 0x00, 0x00, 0x00, 0x00, 0x00, 0x00, 0x00, 0x00,
   0x00, 0xc0, 0x01, 0x00, 0x00, 0x81, 0x00, 0xa0, 0xcd, 0x1f, 0x06, 0x80,
   0x0d, 0x00, 0x80, 0x20, 0x00, 0x00, 0x00, 0x00, 0x00, 0x00, 0x00, 0x00,
   0x00, 0x00, 0x00, 0x00, 0x00, 0x00, 0x00, 0x00, 0xc0, 0x09, 0x20, 0x24,
   0x00, 0x40, 0x50, 0xed, 0x1e, 0x03, 0xc0, 0x11, 0x00, 0xc0, 0x30, 0x00,
   0x00, 0x00, 0x00, 0x00, 0x00, 0x00, 0x00, 0x00, 0x00, 0x00, 0x00, 0x00,
   0x00, 0x00, 0x00, 0xc0, 0x23, 0x00, 0x00, 0x08, 0x04, 0x50, 0x97, 0x8b,
   0x02, 0x88, 0x15, 0x00, 0x80, 0x20, 0x00, 0x00, 0x00, 0x00, 0x00, 0x00,
   0x00, 0x00, 0x00, 0x00, 0x00, 0x00, 0x00, 0x00, 0x00, 0x00, 0x40, 0x03,
   0x01, 0x00, 0x00, 0x00, 0xaa, 0x0e, 0xa6, 0x01, 0x00, 0x13, 0x00, 0x80,
   0x20, 0x00, 0x00, 0x00, 0x00, 0x00, 0x00, 0x00, 0x00, 0x00, 0x00, 0x00,
   0x00, 0x00, 0x00, 0x00, 0x00, 0x40, 0x06, 0x80, 0x40, 0x40, 0x00, 0x50,
   0x0b, 0x20, 0x43, 0x40, 0x27, 0x00, 0x80, 0x21, 0x00, 0x00, 0x00, 0x00,
   0x00, 0x00, 0x00, 0x00, 0x00, 0x00, 0x00, 0x00, 0x00, 0x00, 0x00, 0x00,
   0x40, 0x06, 0x04, 0x08, 0x00, 0x10, 0x28, 0x44, 0x8a, 0x00, 0x80, 0x2e,
   0x00, 0xc0, 0x20, 0x00, 0x00, 0x00, 0x00, 0x00, 0x00, 0x00, 0x00, 0x00,
   0x00, 0x00, 0x00, 0x00, 0x00, 0x00, 0x00, 0x80, 0x0c, 0x00, 0x28, 0x02,
   0x00, 0x68, 0x4c, 0x10, 0x00, 0x80, 0x7e, 0x00, 0x80, 0x22, 0x00, 0x00,
   0x00, 0x00, 0x00, 0x00, 0x00, 0x00, 0x00, 0x00, 0x00, 0x00, 0x00, 0x00,
   0x00, 0x00, 0x80, 0x1d, 0xf0, 0xff, 0x8f, 0x40, 0x28, 0x00, 0x01, 0x00,
   0x00, 0xff, 0x55, 0xab, 0x00, 0x00, 0x00, 0x00, 0x00, 0x00, 0x00, 0x00,
   0x00, 0x00, 0x00, 0x00, 0x00, 0x00, 0x00, 0x00, 0x00, 0x80, 0x99, 0x78,
   0xab, 0xf9, 0x00, 0xa8, 0x20, 0x00, 0x00, 0x00, 0xfd, 0x00, 0x40, 0x5f,
   0x00, 0x00, 0x00, 0x00, 0x00, 0x00, 0x00, 0x00, 0x00, 0x00, 0x00, 0x00,
   0x00, 0x00, 0x00, 0x00, 0x00, 0x13, 0x0c, 0x00, 0x8a, 0x05, 0x11, 0x8a,
   0x00, 0x00, 0x40, 0x7e, 0x00, 0x00, 0x38, 0x00, 0x00, 0x00, 0x00, 0x00,
   0x00, 0x00, 0x00, 0x00, 0x00, 0x00, 0x00, 0x00, 0x00, 0x00, 0x00, 0x00,
   0x37, 0x06, 0x00, 0x9e, 0x04, 0x70, 0x00, 0x00, 0x00, 0x00, 0x7d, 0x00,
   0x00, 0x60, 0x00, 0x00, 0x00, 0x00, 0x00, 0x00, 0x00, 0x00, 0x00, 0x00,
   0x00, 0x00, 0x00, 0x00, 0x00, 0x00, 0x00, 0x26, 0x02, 0x20, 0x70, 0x15,
   0x00, 0x01, 0x08, 0x00, 0x40, 0x32, 0x00, 0x00, 0xc0, 0x00, 0x00, 0x00,
   0x00, 0x00, 0x00, 0x00, 0x00, 0x00, 0x00, 0x00, 0x00, 0x00, 0x00, 0x00,
   0x00, 0x00, 0x4c, 0x00, 0xc5, 0xd7, 0x14, 0x60, 0x00, 0x00, 0x00, 0x00,
   0x3d, 0x00, 0x00, 0x80, 0x00, 0x00, 0x00, 0x00, 0x00, 0x00, 0x00, 0x00,
   0x00, 0x00, 0x00, 0x00, 0x00, 0x00, 0x00, 0x00, 0x00, 0x48, 0x24, 0xbb,
   0x83, 0x50, 0x90, 0x02, 0x00, 0x00, 0x00, 0x2d, 0x54, 0x82, 0x80, 0x00,
   0x00, 0x00, 0x00, 0x00, 0x00, 0x00, 0x00, 0x00, 0x00, 0x00, 0x00, 0x00,
   0x00, 0x00, 0x00, 0x00, 0x08, 0x80, 0xfd, 0x82, 0x20, 0x40, 0x12, 0x00,
   0x00, 0x00, 0x06, 0x10, 0x10, 0x00, 0x01, 0x00, 0x00, 0x00, 0x00, 0x00,
   0x00, 0x00, 0x00, 0x00, 0x00, 0x00, 0x00, 0x00, 0x00, 0x00, 0x00, 0x10,
   0xc8, 0xd6, 0x01, 0x20, 0x80, 0x00, 0x00, 0x00, 0x40, 0x13, 0xbd, 0x2a,
   0x80, 0x02, 0x00, 0x00, 0x00, 0x00, 0x00, 0x00, 0x00, 0x00, 0x00, 0x00,
   0x00, 0x00, 0x00, 0x00, 0x00, 0x00, 0x30, 0xc0, 0xe5, 0xa1, 0x40, 0x00,
   0x0a, 0x00, 0x00, 0x00, 0x01, 0xf8, 0x6a, 0x01, 0x02, 0x00, 0x00, 0x00,
   0x00, 0x00, 0x00, 0x00, 0x00, 0x00, 0x00, 0x00, 0x00, 0x00, 0x00, 0x00,
   0x00, 0x20, 0xc1, 0x41, 0x08, 0x40, 0x40, 0x00, 0x00, 0x00, 0x42, 0xa1,
   0x0e, 0x3a, 0x00, 0x03, 0x00, 0x00, 0x00, 0x00, 0x00, 0x00, 0x00, 0x00,
   0x00, 0x00, 0x00, 0x00, 0x00, 0x00, 0x00, 0x00, 0x20, 0x40, 0x0e, 0x29,
   0x81, 0x00, 0x29, 0x10, 0x00, 0x00, 0x07, 0x06, 0x7d, 0x02, 0x04, 0x00,
   0x00, 0x00, 0x00, 0x00, 0x00, 0x00, 0x00, 0x00, 0x00, 0x00, 0x00, 0x00,
   0x00, 0x00, 0x00, 0x20, 0x00, 0x7c, 0x01, 0x08, 0x40, 0x00, 0x00, 0x02,
   0x40, 0xd7, 0xa3, 0x70, 0x00, 0x06, 0x00, 0x00, 0x00, 0x00, 0x00, 0x00,
   0x00, 0x00, 0x00, 0x00, 0x00, 0x00, 0x00, 0x00, 0x00, 0x00, 0xc0, 0x00,
   0x00, 0x08, 0xc0, 0x00, 0x25, 0x00, 0x00, 0x81, 0xfe, 0x11, 0xe0, 0x01,
   0x04, 0x00, 0x00, 0x00, 0x00, 0x00, 0x00, 0x00, 0x00, 0x00, 0x00, 0x00,
   0x00, 0x00, 0x00, 0x00, 0x00, 0x80, 0x01, 0x00, 0x01, 0x00, 0x80, 0x00,
   0x00, 0x08, 0xa0, 0xfa, 0x0b, 0xa0, 0x11, 0x0a, 0x00, 0x00, 0x00, 0x00,
   0x00, 0x00, 0x00, 0x00, 0x00, 0x00, 0x00, 0x00, 0x00, 0x00, 0x00, 0x00,
   0x00, 0x05, 0x00, 0x00, 0x40, 0x01, 0x79, 0x11, 0x00, 0x84, 0xfa, 0x01,
   0x80, 0x03, 0x0c, 0x00, 0x00, 0x00, 0x00, 0x00, 0x00, 0x00, 0x00, 0x00,
   0x00, 0x00, 0x00, 0x00, 0x00, 0x00, 0x00, 0x00, 0x02, 0x00, 0x00, 0x00,
   0x81, 0xda, 0xc1, 0x51, 0x59, 0x7a, 0x00, 0x20, 0x0f, 0x18, 0x00, 0x00,
   0x00, 0x00, 0x00, 0x00, 0x00, 0x00, 0x00, 0x00, 0x00, 0x00, 0x00, 0x00,
   0x00, 0x00, 0x00, 0x0e, 0x00, 0x00, 0x00, 0x01, 0x4c, 0x03, 0x3e, 0xa5,
   0x7a, 0x00, 0x01, 0x2e, 0x5b, 0x00, 0x00, 0x00, 0x00, 0x00, 0x00, 0x00,
   0x00, 0x00, 0x00, 0x00, 0x00, 0x00, 0x00, 0x00, 0x00, 0x00, 0x04, 0x00,
   0x00, 0x10, 0x01, 0x8a, 0x02, 0xe0, 0x51, 0x1e, 0x20, 0x00, 0x7c, 0x5c,
   0x00, 0x00, 0x00, 0x00, 0x00, 0x00, 0x00, 0x00, 0x00, 0x00, 0x00, 0x00,
   0x00, 0x00, 0x00, 0x00, 0x00, 0x08, 0x00, 0x00, 0x00, 0x01, 0x98, 0x0b,
   0x00, 0x83, 0x06, 0x40, 0x01, 0x38, 0x35, 0x00, 0x00, 0x00, 0x00, 0x00,
   0x00, 0x00, 0x00, 0x00, 0x00, 0x00, 0x00, 0x00, 0x00, 0x00, 0x00, 0x00,
   0x18, 0x00, 0x00, 0x20, 0x08, 0x28, 0x43, 0x00, 0xa1, 0x02, 0x00, 0x00,
   0x68, 0x28, 0x00, 0x00, 0x00, 0x00, 0x00, 0x00, 0x00, 0x00, 0x00, 0x00,
   0x00, 0x00, 0x00, 0x00, 0x00, 0x00, 0x00, 0x58, 0x00, 0x00, 0x40, 0x01,
   0xb0, 0x0b, 0x10, 0xa1, 0x03, 0x62, 0x05, 0xe8, 0x30, 0x00, 0x00, 0x00,
   0x00, 0x00, 0x00, 0x00, 0x00, 0x00, 0x00, 0x00, 0x00, 0x00, 0x00, 0x00,
   0x00, 0x00, 0x10, 0x00, 0x00, 0x20, 0x10, 0xd4, 0x84, 0x18, 0xc0, 0x01,
   0xe8, 0x00, 0xa0, 0x20, 0x00, 0x00, 0x00, 0x00, 0x00, 0x00, 0x00, 0x00,
   0x00, 0x00, 0x00, 0x00, 0x00, 0x00, 0x00, 0x00, 0x00, 0xb0, 0x00, 0x00,
   0x20, 0x01, 0xe0, 0x14, 0x3c, 0xd4, 0x41, 0x70, 0x17, 0xa0, 0x21, 0x00,
   0x00, 0x00, 0x00, 0x00, 0x00, 0x00, 0x00, 0x00, 0x00, 0x00, 0x00, 0x00,
   0x00, 0x00, 0x00, 0x00, 0x20, 0x40, 0x00, 0x24, 0x02, 0x78, 0x01, 0x0e,
   0xd0, 0x28, 0x1d, 0x0c, 0x40, 0x49, 0x00, 0x00, 0x00, 0x00, 0x00, 0x00,
   0x00, 0x00, 0x00, 0x00, 0x00, 0x00, 0x00, 0x00, 0x00, 0x00, 0x00, 0x60,
   0x02, 0x00, 0x28, 0x02, 0x38, 0x15, 0x0f, 0xe8, 0xc0, 0x0b, 0x78, 0x00,
   0xd1, 0x03, 0x00, 0x00, 0x00, 0x00, 0x00, 0x00, 0x00, 0x00, 0x00, 0x00,
   0x00, 0x00, 0x00, 0x00, 0x00, 0x00, 0xc0, 0x00, 0x04, 0x68, 0x00, 0xbe,
   0xc0, 0x47, 0xe4, 0xd0, 0x02, 0x60, 0x80, 0x82, 0x0f, 0x00, 0x00, 0x00,
   0x00, 0x00, 0x00, 0x00, 0x00, 0x00, 0x00, 0x00, 0x00, 0x00, 0x00, 0x00,
   0x00, 0x80, 0x01, 0x40, 0x04, 0x0f, 0x1e, 0xc5, 0x07, 0xe8, 0xc0, 0x01,
   0xc0, 0x03, 0x46, 0x7f, 0x00, 0x00, 0x00, 0x00, 0x00, 0x00, 0x00, 0x00,
   0x00, 0x00, 0x00, 0x00, 0x00, 0x00, 0x00, 0x00, 0x80, 0x01, 0x00, 0x46,
   0xb8, 0xaf, 0x70, 0x03, 0xea, 0xd0, 0x00, 0x80, 0x03, 0x88, 0xff, 0x03,
   0x00, 0x00, 0x00, 0x00, 0x00, 0x00, 0x00, 0x00, 0x00, 0x00, 0x00, 0x00,
   0x00, 0x00, 0x00, 0x80, 0x03, 0x00, 0x06, 0x00, 0x02, 0xba, 0x17, 0xe8,
   0x20, 0x00, 0x00, 0x07, 0x10, 0xff, 0x1f, 0x00, 0x00, 0x00, 0x00, 0x00,
   0x00, 0x00, 0x00, 0x00, 0x00, 0x00, 0x00, 0x00, 0x00, 0x00, 0xe0, 0x27,
   0x44, 0x02, 0x00, 0x28, 0xed, 0x03, 0x6a, 0x08, 0x00, 0x00, 0x06, 0x52,
   0xff, 0xff, 0x00, 0x00, 0x00, 0x00, 0x00, 0x00, 0x00, 0x00, 0x00, 0x00,
   0x00, 0x00, 0x00, 0x00, 0x00, 0xfc, 0x07, 0x00, 0x05, 0x20, 0xc0, 0xe7,
   0x03, 0x74, 0x08, 0x00, 0x00, 0x1c, 0x40, 0xff, 0xff, 0x07, 0x00, 0x00,
   0x00, 0x00, 0x00, 0x00, 0x00, 0x00, 0x00, 0x00, 0x00, 0x00, 0x00, 0x00,
   0xff, 0x0f, 0x48, 0x91, 0x00, 0xe0, 0xf2, 0x93, 0x6a, 0x04, 0x40, 0x00,
   0x04, 0xa0, 0xfe, 0xff, 0x3f, 0x00, 0x00, 0x00, 0x00, 0x00, 0x00, 0x00,
   0x00, 0x00, 0x00, 0x00, 0x00, 0x00, 0xc0, 0xff, 0x9f, 0x00, 0x01, 0x84,
   0xfe, 0xb0, 0x03, 0x7a, 0x20, 0x00, 0x00, 0x38, 0xa0, 0xff, 0xff, 0xff,
   0x01, 0x00, 0x00, 0x00, 0x00, 0x00, 0x00, 0x00, 0x00, 0x00, 0x00, 0x00,
   0x00, 0xf8, 0xff, 0x3f, 0x12, 0x00, 0xf0, 0x0f, 0xc8, 0x41, 0x71, 0x01,
   0x72, 0x00, 0xa0, 0xa0, 0xfe, 0xff, 0xff, 0x07, 0x00, 0x00, 0x00, 0x00,
   0x00, 0x00, 0x00, 0x00, 0x00, 0x00, 0x00, 0x00, 0xfe, 0xff, 0x7f, 0x40,
   0xe2, 0xfd, 0x06, 0x8e, 0x03, 0xba, 0x81, 0xfc, 0x01, 0x40, 0xa1, 0xfe,
   0xff, 0xff, 0x1f, 0x00, 0x00, 0x00, 0x00, 0x00, 0x00, 0x00, 0x00, 0x00,
   0x00, 0x00, 0x80, 0xff, 0xff, 0xff, 0x0a, 0xb0, 0x0f, 0x80, 0xf1, 0x41,
   0x35, 0x40, 0x57, 0x05, 0x80, 0x42, 0xfd, 0xff, 0xff, 0x7f, 0x00, 0x00,
   0x00, 0x00, 0x00, 0x00, 0x00, 0x00, 0x00, 0x00, 0x00, 0xf0, 0xff, 0xff,
   0xfe, 0x21, 0x00, 0x3f, 0x50, 0xc3, 0x09, 0x0d, 0xc4, 0xd4, 0x1f, 0x00,
   0x4a, 0xff, 0xff, 0xff, 0xff, 0x01, 0x00, 0x00, 0x00, 0x00, 0x00, 0x00,
   0x00, 0x00, 0x00, 0x00, 0xfd, 0xff, 0xff, 0xff, 0x0b, 0x01, 0xee, 0x5d,
   0xf4, 0xff, 0x1d, 0x30, 0xde, 0x07, 0x40, 0xa5, 0xfe, 0xff, 0xff, 0xff,
   0x07, 0x00, 0x00, 0x00, 0x00, 0x00, 0x00, 0x00, 0x00, 0x00, 0xd0, 0xff,
   0xfe, 0xff, 0xff, 0x27, 0x04, 0x0c, 0x82, 0xf4, 0x10, 0xd4, 0x1f, 0xd4,
   0x0f, 0x00, 0xac, 0xfe, 0xff, 0xff, 0xff, 0x0f, 0x00, 0x00, 0x00, 0x00,
   0x00, 0x00, 0x00, 0x00, 0x00, 0xfc, 0xbf, 0xff, 0xff, 0xfe, 0x0f, 0x00,
   0x78, 0x10, 0x7d, 0x00, 0x00, 0x00, 0xf9, 0x0f, 0x00, 0x55, 0xfd, 0xff,
   0xff, 0xff, 0x3f, 0x00, 0x00, 0x00, 0x00, 0x00, 0x00, 0x00, 0x00, 0x80,
   0xff, 0xff, 0xdf, 0xff, 0xff, 0x7f, 0x11, 0xe0, 0xa5, 0x1e, 0x00, 0x00,
   0x00, 0xe9, 0x0f, 0x00, 0xaa, 0xfe, 0xff, 0xff, 0xff, 0xff, 0x00, 0x00,
   0x00, 0x00, 0x00, 0x00, 0x00, 0x00, 0xf0, 0xff, 0xf6, 0xfb, 0xff, 0xff,
   0x5f, 0x00, 0x40, 0xf7, 0x1f, 0x04, 0x00, 0x80, 0xf4, 0x2f, 0x00, 0xaa,
   0xfe, 0xff, 0xff, 0xff, 0xff, 0x01, 0x00, 0x00, 0x00, 0x00, 0x00, 0x00,
   0x00, 0xfe, 0xdf, 0xbf, 0xff, 0xbf, 0xfe, 0x9f, 0x22, 0x00, 0xf8, 0x0f,
   0x00, 0x00, 0xa0, 0xe8, 0x1f, 0x00, 0x2a, 0xfd, 0xff, 0xff, 0xff, 0xff,
   0x0f, 0x00, 0x00, 0x00, 0x00, 0x00, 0x00, 0xc0, 0xff, 0x7b, 0xf5, 0xff,
   0xff, 0xff, 0x8f, 0x03, 0x09, 0x02, 0x04, 0x00, 0x00, 0x40, 0xfa, 0x17,
   0x00, 0x94, 0xfe, 0xff, 0xff, 0xff, 0xff, 0x1f, 0x00, 0x00, 0x00, 0x00,
   0x00, 0x00, 0xf0, 0x6f, 0xff, 0xdf, 0xef, 0xef, 0xff, 0x9f, 0x0f, 0x00,
   0x00, 0x06, 0x01, 0x00, 0x60, 0xf0, 0x37, 0x00, 0x28, 0xfd, 0xff, 0xff,
   0xff, 0xff, 0x7f, 0x00, 0x00, 0x00, 0x00, 0x00, 0x00, 0xfe, 0xff, 0x6d,
   0xf7, 0xfe, 0x7f, 0xf7, 0x1f, 0x3b, 0x40, 0x80, 0x03, 0x00, 0x00, 0x20,
   0xfd, 0x27, 0x01, 0x4a, 0xfd, 0xff, 0xff, 0xff, 0xff, 0xff, 0x01, 0x00,
   0x00, 0x00, 0x00, 0x80, 0xff, 0xde, 0xff, 0xde, 0xff, 0xff, 0xff, 0x1f,
   0xe7, 0x00, 0x10, 0x01, 0x00, 0x00, 0x30, 0xf8, 0x6b, 0x00, 0x18, 0xfd,
   0xff, 0xff, 0xff, 0xff, 0xff, 0x03, 0x00, 0x00, 0x00, 0x00, 0xf0, 0xff,
   0x7b, 0xeb, 0xf7, 0xff, 0xef, 0xff, 0x1f, 0x87, 0x03, 0x80, 0x00, 0x00,
   0x00, 0x98, 0xfc, 0xe3, 0x01, 0x50, 0xfd, 0xff, 0xff, 0xff, 0xff, 0xff,
   0x0f, 0x00, 0x00, 0x00, 0x00, 0xfc, 0x6f, 0xef, 0xdf, 0xfe, 0xfb, 0xff,
   0xf7, 0x1f, 0x0f, 0x06, 0x41, 0x00, 0x00, 0x00, 0x18, 0xfc, 0xe5, 0x02,
   0x50, 0xfa, 0xff, 0xff, 0xff, 0xff, 0xff, 0x3f, 0x00, 0x00, 0x00, 0x80,
   0xff, 0xfd, 0xbd, 0xfd, 0xd7, 0xff, 0xff, 0xff, 0x1f, 0x0e, 0x1c, 0x20,
   0x00, 0x00, 0x00, 0x44, 0xfc, 0xe1, 0x00, 0x54, 0xfd, 0xff, 0xff, 0xff,
   0xff, 0xff, 0xff, 0x01, 0x00, 0x00, 0xe0, 0xff, 0xaf, 0xf7, 0xb7, 0xfe,
   0xff, 0x6f, 0xff, 0x1f, 0x9e, 0x70, 0x30, 0x10, 0x00, 0x00, 0x0e, 0xfe,
   0xc5, 0x00, 0x50, 0xfa, 0xff, 0xff, 0xff, 0xff, 0xff, 0xff, 0x07, 0x00,
   0x00, 0xf8, 0x6f, 0xfb, 0xbd, 0xff, 0xbb, 0xf7, 0xff, 0xef, 0x3f, 0x1c,
   0xc0, 0x11, 0x00, 0x00, 0x00, 0xa2, 0xfe, 0xe9, 0x00, 0xa0, 0xf4, 0xff,
   0xff, 0xff, 0xff, 0xff, 0xff, 0x0f, 0x00, 0x00, 0xfc, 0xfd, 0xbf, 0x77,
   0xad, 0xf7, 0xff, 0xfb, 0xff, 0x3f, 0x38, 0x00, 0x0f, 0x00, 0x00, 0x00,
   0x07, 0xff, 0xc1, 0x00, 0xa0, 0xfc, 0xff, 0xff, 0xff, 0xff, 0xff, 0xff,
   0x1f, 0x00, 0x00, 0xff, 0xaf, 0xf5, 0xff, 0xff, 0xff, 0xff, 0xff, 0xfe,
   0x3f, 0x30, 0x01, 0x04, 0x00, 0x00, 0x80, 0x11, 0xff, 0xc5, 0x00, 0x40,
   0xf5, 0xff, 0xff, 0xff, 0xff, 0xff, 0xff, 0x1f, 0x00, 0x00, 0xdf, 0xfd,
   0x7f, 0xad, 0x75, 0xff, 0xff, 0xfb, 0xff, 0x3f, 0x70, 0x10, 0x04, 0x00,
   0x00, 0x80, 0xa2, 0xff, 0x91, 0x02, 0x40, 0xf9, 0xff, 0xff, 0xff, 0xff,
   0xff, 0xff, 0x1f, 0x00, 0x80, 0xff, 0xb7, 0xed, 0xff, 0xff, 0xef, 0xfe,
   0xff, 0xef, 0x3f, 0xe0, 0x80, 0x02, 0x00, 0x00, 0xc0, 0x80, 0xff, 0xc4,
   0x00, 0x90, 0xf4, 0xff, 0xff, 0xff, 0xff, 0xff, 0xff, 0x1f, 0x00, 0xc0,
   0xbf, 0xfe, 0xdf, 0x6d, 0xff, 0xff, 0x7f, 0xdb, 0xff, 0x3f, 0xc0, 0x01,
   0x02, 0x01, 0x00, 0xe0, 0xd4, 0xff, 0x89, 0x00, 0x80, 0xfa, 0xff, 0xff,
   0xff, 0xff, 0xff, 0xff, 0x1f, 0x00, 0xc0, 0xff, 0xab, 0x7d, 0xff, 0xef,
   0xff, 0xff, 0xff, 0xfe, 0x3f, 0x80, 0x03, 0x03, 0x00, 0x00, 0x60, 0xe0,
   0xff, 0xa0, 0x02, 0x40, 0xe9, 0xff, 0xff, 0xff, 0xff, 0xff, 0xff, 0x1f,
   0x00, 0xc0, 0xdf, 0xff, 0xef, 0xdb, 0xff, 0xee, 0xff, 0xfe, 0xdf, 0x7f,
   0x00, 0x07, 0x01, 0x00, 0x00, 0x60, 0xe2, 0xff, 0x85, 0x00, 0x00, 0xf5,
   0xff, 0xff, 0xff, 0xff, 0xff, 0xff, 0x3f, 0x00, 0xe0, 0x7f, 0x6f, 0x7d,
   0xff, 0xff, 0xff, 0xff, 0xff, 0xff, 0x7f, 0x00, 0x0f, 0x03, 0x00, 0x00,
   0x38, 0xe8, 0xff, 0x91, 0x01, 0x00, 0xe9, 0xff, 0xff, 0xff, 0xff, 0xff,
   0xff, 0x3f, 0x00, 0xe0, 0xef, 0xfd, 0xef, 0xd6, 0xfe, 0xff, 0xff, 0xdd,
   0xff, 0x7f, 0x00, 0x1c, 0x01, 0x00, 0x00, 0x58, 0xf1, 0xff, 0x21, 0x01,
   0x00, 0xf6, 0xff, 0xff, 0xff, 0xff, 0xff, 0xff, 0x3f, 0x00, 0xe0, 0x7f,
   0xb7, 0xfd, 0xff, 0xff, 0xbd, 0x7f, 0xff, 0xfd, 0x7f, 0x00, 0x3c, 0x01,
   0x00, 0x00, 0x0e, 0xfc, 0xff, 0x85, 0x01, 0x80, 0xd2, 0xff, 0xff, 0xff,
   0xff, 0xff, 0xff, 0x3f, 0x00, 0xb0, 0xef, 0xff, 0xad, 0xf5, 0xff, 0xff,
   0xff, 0xff, 0xdf, 0x7f, 0x00, 0x78, 0x03, 0x00, 0x00, 0x86, 0xf8, 0xff,
   0x11, 0x03, 0x00, 0xf4, 0xff, 0xff, 0xff, 0xff, 0xfe, 0xff, 0x3f, 0x00,
   0xf0, 0x7f, 0xb5, 0xff, 0xff, 0xfb, 0xff, 0xff, 0xfe, 0xff, 0xff, 0x00,
   0xf0, 0x4e, 0x00, 0x80, 0x11, 0xfe, 0xff, 0x41, 0x11, 0x00, 0xea, 0xff,
   0xff, 0xff, 0xff, 0xff, 0xff, 0x7f, 0x00, 0xf0, 0xef, 0xff, 0xdb, 0xd6,
   0xff, 0xff, 0xdf, 0xdf, 0xff, 0xff, 0x00, 0xe0, 0x1f, 0x00, 0x80, 0x42,
   0xfe, 0xff, 0x09, 0x02, 0x00, 0xd4, 0xff, 0xff, 0xff, 0xff, 0xff, 0xff,
   0x3f, 0x00, 0xb8, 0xff, 0xb6, 0xfe, 0xff, 0xff, 0xfb, 0xff, 0xfe, 0xfe,
   0xff, 0x00, 0xc0, 0xe7, 0x43, 0xd4, 0x08, 0xff, 0xff, 0x45, 0x02, 0x00,
   0xa8, 0xff, 0xff, 0xff, 0xff, 0xff, 0xff, 0x7f, 0x00, 0xf8, 0xdf, 0xff,
   0xdb, 0xfa, 0xff, 0xff, 0xdf, 0xff, 0xdf, 0xff, 0x00, 0x80, 0x07, 0x9e,
   0x80, 0x91, 0xff, 0xff, 0x0b, 0x06, 0x00, 0xe9, 0xff, 0xff, 0xff, 0xbf,
   0xff, 0xff, 0x7f, 0x00, 0x78, 0xff, 0xb6, 0xff, 0xff, 0xff, 0xdf, 0xff,
   0xfd, 0xfb, 0xff, 0x00, 0x00, 0x27, 0x00, 0x12, 0xc2, 0xff, 0xff, 0x23,
   0x04, 0x00, 0xd0, 0xff, 0xff, 0xff, 0xff, 0xff, 0xff, 0x7f, 0x00, 0xec,
   0xdf, 0xff, 0xb6, 0xed, 0xff, 0xff, 0xbf, 0xf7, 0xff, 0xff, 0x01, 0x00,
   0x8e, 0x52, 0x40, 0xc8, 0xff, 0xff, 0x47, 0x4c, 0x00, 0xa4, 0xff, 0xff,
   0xff, 0xff, 0xff, 0xfb, 0x7f, 0x00, 0xfc, 0x7f, 0xb5, 0xff, 0xff, 0xff,
   0xff, 0xff, 0x7f, 0xff, 0xff, 0x01, 0x00, 0x0e, 0x08, 0x17, 0xe1, 0xff,
   0xff, 0x07, 0x00, 0x00, 0x50, 0xff, 0xff, 0xff, 0xdf, 0xff, 0xff, 0xff,
   0x00, 0xfc, 0xff, 0xff, 0xad, 0xfd, 0xff, 0xfd, 0xef, 0xff, 0xdf, 0xff,
   0x01, 0x00, 0x3c, 0x01, 0x6e, 0xe4, 0xff, 0xff, 0x5f, 0x08, 0x00, 0x81,
   0xff, 0xff, 0xff, 0xff, 0xff, 0xff, 0xff, 0x00, 0xbc, 0xff, 0xb6, 0xff,
   0xff, 0xff, 0xff, 0xff, 0xff, 0xff, 0xff, 0x01, 0x00, 0x30, 0x54, 0x34,
   0xf1, 0xff, 0xff, 0x0f, 0x00, 0x00, 0xa4, 0xfe, 0xff, 0xff, 0x7e, 0xff,
   0xff, 0xff, 0x00, 0xf6, 0xdf, 0xff, 0x6d, 0xfb, 0xff, 0xff, 0xdf, 0xf7,
   0xfd, 0xff, 0x01, 0x00, 0xe0, 0x80, 0x64, 0xfe, 0xff, 0xff, 0x5f, 0x02,
   0x00, 0x80, 0xfe, 0xff, 0xff, 0xff, 0xff, 0xfb, 0xff, 0x00, 0xfe, 0x7f,
   0x5b, 0xff, 0xff, 0xff, 0xf7, 0xff, 0xfe, 0xff, 0xff, 0x03, 0x00, 0xe0,
   0x7f, 0x6f, 0xe1, 0xff, 0xff, 0x3f, 0x20, 0x00, 0x04, 0xfd, 0xff, 0xff,
   0xff, 0xff, 0xff, 0xff, 0x00, 0xf6, 0xff, 0xff, 0x5b, 0xfd, 0xff, 0xff,
   0xf7, 0xdf, 0xdf, 0xff, 0x03, 0x00, 0xc0, 0x40, 0x68, 0xe0, 0xff, 0xff,
   0xff, 0x00, 0x00, 0x10, 0xf4, 0xff, 0xff, 0xfb, 0xff, 0xff, 0xff, 0x00,
   0xfe, 0xbf, 0x6d, 0xff, 0xff, 0xff, 0xff, 0xff, 0xff, 0xfb, 0xff, 0x03,
   0x00, 0x00, 0x00, 0x44, 0xe0, 0xff, 0xff, 0x7f, 0x02, 0x00, 0x00, 0xe4,
   0xff, 0x7f, 0xff, 0xff, 0xf7, 0xff, 0x01, 0xee, 0xff, 0xff, 0xdb, 0xfb,
   0xff, 0xff, 0xed, 0xff, 0xff, 0xff, 0x03, 0x00, 0x40, 0x00, 0x0c, 0xf0,
   0xff, 0xff, 0xff, 0x88, 0x00, 0x00, 0xc8, 0xff, 0xff, 0xff, 0xff, 0xff,
   0xff, 0x01, 0xfe, 0xbf, 0x6d, 0x7f, 0xff, 0xff, 0xff, 0xff, 0xbe, 0xbf,
   0x7f, 0x03, 0x00, 0x20, 0x07, 0x28, 0xf0, 0xff, 0xff, 0xff, 0x01, 0x00,
   0x01, 0x00, 0xff, 0xff, 0xfb, 0x7f, 0xff, 0xff, 0x01, 0xee, 0xff, 0xfd,
   0xed, 0xfe, 0xff, 0xff, 0xfb, 0xff, 0xff, 0x7f, 0x03, 0x00, 0x30, 0x19,
   0x08, 0xf0, 0xff, 0xff, 0xff, 0x17, 0x00, 0x00, 0x00, 0xfe, 0xf7, 0xff,
   0xff, 0xff, 0xff, 0x01, 0xfe, 0xbf, 0xd7, 0xff, 0xff, 0xff, 0xff, 0xff,
   0xfd, 0xfd, 0x7f, 0x02, 0x00, 0x1c, 0x10, 0x28, 0xf0, 0xff, 0xff, 0xff,
   0x13, 0x00, 0x40, 0x90, 0xfc, 0xff, 0xf7, 0xff, 0xf7, 0xff, 0x01, 0xee,
   0x7f, 0x7f, 0xb5, 0xfd, 0xff, 0xff, 0xdd, 0xff, 0xff, 0x7f, 0x02, 0x00,
   0x0c, 0x10, 0x08, 0xf0, 0xff, 0xff, 0xff, 0xa7, 0x00, 0x04, 0x00, 0xfc,
   0x7f, 0xff, 0xff, 0xff, 0xff, 0x01, 0xfe, 0xff, 0xed, 0xff, 0xff, 0xff,
   0xff, 0xff, 0xf7, 0xf7, 0x7f, 0x02, 0x00, 0x07, 0x10, 0x64, 0xf0, 0xff,
   0xff, 0xff, 0x5f, 0x04, 0x00, 0x00, 0xf8, 0xef, 0xff, 0xff, 0xff, 0xff,
   0x01, 0xee, 0xff, 0x7f, 0xb7, 0xfd, 0xff, 0xff, 0xfd, 0xbf, 0xdf, 0x7f,
   0x00, 0x00, 0x43, 0x1d, 0x4c, 0xf0, 0xff, 0xff, 0xff, 0xdf, 0x10, 0x0c,
   0x00, 0xf8, 0xff, 0xff, 0x7f, 0xff, 0xff, 0x03, 0xfe, 0xbf, 0xed, 0xfd,
   0xff, 0xff, 0xff, 0x7f, 0xff, 0xff, 0x7f, 0x02, 0x80, 0x81, 0x1f, 0x68,
   0xf8, 0xff, 0xff, 0xff, 0xbf, 0x81, 0x06, 0x80, 0xf0, 0xfd, 0xff, 0xff,
   0xf7, 0xff, 0x03, 0xee, 0xff, 0xdf, 0xdb, 0xfe, 0xff, 0xbf, 0xfe, 0xff,
   0xff, 0x7f, 0x04, 0x80, 0x00, 0x0a, 0x48, 0xf0, 0xff, 0xff, 0xff, 0x7f,
   0x93, 0x03, 0x00, 0xf0, 0xff, 0xfd, 0xff, 0xff, 0xff, 0x03, 0xfe, 0xbf,
   0x7d, 0xff, 0xff, 0xff, 0xff, 0xf7, 0xbd, 0xff, 0x7f, 0x00, 0x80, 0x00,
   0x00, 0x64, 0xf8, 0xff, 0xff, 0xff, 0x7f, 0xfc, 0x01, 0x00, 0xf0, 0xef,
   0xff, 0xef, 0xff, 0xff, 0x03, 0xeb, 0xff, 0xef, 0xb7, 0xfd, 0xff, 0x7f,
   0xff, 0xff, 0xdd, 0x7f, 0x00, 0x80, 0x00, 0x00, 0x4c, 0xf0, 0xff, 0xff,
   0xff, 0xff, 0x39, 0x04, 0x00, 0xe0, 0xdf, 0xff, 0xff, 0xf7, 0xff, 0x03,
   0xfe, 0x7f, 0x7d, 0xfd, 0xff, 0xff, 0xff, 0xff, 0xf7, 0xff, 0x7f, 0x00,
   0x80, 0x00, 0x00, 0x48, 0xf8, 0xff, 0xff, 0xff, 0xff, 0x61, 0x00, 0x00,
   0xe0, 0xff, 0xff, 0xbf, 0xff, 0xff, 0x03, 0xee, 0xff, 0xef, 0x6f, 0xff,
   0xff, 0xdf, 0xdd, 0xff, 0xff, 0x7f, 0x00, 0xc0, 0x01, 0x00, 0x48, 0xf8,
   0xff, 0xff, 0xff, 0xff, 0xcb, 0x00, 0x00, 0xc2, 0xff, 0xff, 0xff, 0xff,
   0xff, 0x01, 0xbe, 0x7f, 0x7b, 0xfb, 0xff, 0xff, 0xff, 0xff, 0xff, 0xff,
   0x7f, 0x00, 0xc0, 0x00, 0x00, 0x64, 0xf8, 0xff, 0xff, 0xff, 0xff, 0x87,
   0x10, 0x00, 0xc0, 0xbe, 0xff, 0xff, 0xff, 0xff, 0x01, 0xfe, 0xff, 0xef,
   0x6f, 0xfd, 0xff, 0xbf, 0x7b, 0xbf, 0xdd, 0x7f, 0x00, 0x60, 0x00, 0x00,
   0x84, 0xf8, 0xff, 0xff, 0xff, 0xff, 0x4f, 0x03, 0x00, 0x48, 0xf4, 0xff,
   0xef, 0xfb, 0xff, 0x01, 0xfe, 0x7f, 0x7b, 0xfb, 0xff, 0xff, 0xff, 0xff,
   0xff, 0xff, 0x7f, 0x00, 0x20, 0x00, 0x00, 0xa4, 0xf8, 0xff, 0xff, 0xff,
   0xff, 0x0f, 0x03, 0x00, 0x40, 0xc2, 0xff, 0x7f, 0xff, 0xff, 0x01, 0xec,
   0xff, 0xef, 0xbf, 0xff, 0xff, 0xb7, 0xff, 0xf6, 0xff, 0x7f, 0x00, 0x10,
   0x00, 0x00, 0xc2, 0xf8, 0xff, 0xff, 0xff, 0xff, 0x3f, 0x0e, 0x00, 0x80,
   0x8b, 0xff, 0xff, 0xff, 0xff, 0x01, 0xfc, 0xbf, 0xbe, 0xf5, 0xfe, 0xff,
   0xff, 0xef, 0xff, 0xbb, 0x7f, 0x00, 0x00, 0x00, 0x00, 0x29, 0xfc, 0xff,
   0xff, 0xff, 0xff, 0x3f, 0x24, 0x00, 0x80, 0x81, 0xff, 0xff, 0xff, 0xff,
   0x01, 0xdc, 0xff, 0xf7, 0xdf, 0xff, 0xff, 0xd7, 0xbf, 0xd6, 0xff, 0x7f,
   0x00, 0x08, 0x00, 0x00, 0x63, 0xfc, 0xff, 0xff, 0xff, 0xff, 0xbf, 0x4c,
   0x00, 0x00, 0x01, 0xff, 0xfb, 0xff, 0xff, 0x01, 0xf8, 0x7f, 0xdf, 0x76,
   0xff, 0xff, 0xff, 0xed, 0xff, 0xff, 0x7f, 0x00, 0x00, 0x00, 0x00, 0x4c,
   0xf8, 0xff, 0xff, 0xff, 0xff, 0x7f, 0x1a, 0x00, 0x00, 0x11, 0xff, 0xff,
   0xff, 0xff, 0x00, 0xfc, 0xff, 0xfa, 0xff, 0xfe, 0xff, 0xef, 0xdf, 0xb6,
   0xff, 0x7f, 0x00, 0x00, 0x00, 0x00, 0x4e, 0xfc, 0xff, 0xff, 0xff, 0xff,
   0xff, 0x30, 0x00, 0x01, 0x01, 0xff, 0xff, 0xff, 0xff, 0x00, 0xf8, 0xff,
   0xaf, 0xed, 0xff, 0xff, 0x7f, 0xfb, 0xfb, 0xbb, 0x7f, 0x00, 0x00, 0x00,
   0x00, 0x63, 0xfc, 0xff, 0xff, 0xff, 0xff, 0xff, 0x39, 0x01, 0x00, 0x21,
   0xff, 0xff, 0xff, 0xff, 0x00, 0xfc, 0xff, 0xfe, 0xdf, 0xfe, 0xff, 0xed,
   0x6f, 0x6f, 0xff, 0x7f, 0x00, 0x00, 0x00, 0x80, 0x21, 0xfc, 0xff, 0xff,
   0xff, 0xff, 0xff, 0x61, 0x00, 0x00, 0x0c, 0xff, 0xff, 0xff, 0xff, 0x00,
   0xf8, 0xff, 0xbb, 0xf6, 0xff, 0xff, 0xbf, 0xfe, 0xfb, 0xff, 0x7f, 0x00,
   0x00, 0x00, 0x80, 0x27, 0xfc, 0xff, 0xff, 0xff, 0xff, 0xff, 0x6b, 0x00,
   0x80, 0x0d, 0xff, 0xff, 0xff, 0x7f, 0x00, 0xfc, 0xff, 0xf7, 0xdf, 0xfe,
   0xff, 0xf6, 0x6d, 0xbf, 0xbf, 0x7f, 0x00, 0x00, 0x00, 0x00, 0x66, 0xfc,
   0xff, 0xff, 0xff, 0xff, 0xff, 0xc3, 0x04, 0xd0, 0x1f, 0xff, 0xff, 0xff,
   0x7f, 0x00, 0xf8, 0xff, 0xdf, 0xfe, 0xff, 0xff, 0xbf, 0xff, 0xed, 0xfb,
   0x7f, 0x00, 0x00, 0x00, 0x00, 0x53, 0xfc, 0xff, 0xff, 0xff, 0xff, 0xff,
   0xcf, 0x00, 0x78, 0xbd, 0xff, 0xff, 0xff, 0x3f, 0x00, 0xfc, 0xff, 0xfb,
   0xdb, 0xfe, 0xff, 0xf6, 0xb6, 0xbf, 0xff, 0x7f, 0x00, 0x00, 0x00, 0x00,
   0x43, 0xbe, 0x7b, 0x77, 0xff, 0xff, 0xff, 0x9f, 0x09, 0xf8, 0x3f, 0xff,
   0xff, 0xff, 0x3f, 0x00, 0xf8, 0xff, 0x6f, 0x7f, 0xff, 0xff, 0xff, 0xff,
   0xf6, 0x7f, 0x7f, 0x00, 0x00, 0x00, 0x80, 0x21, 0xfe, 0xde, 0xff, 0xf7,
   0xff, 0xff, 0xcf, 0x41, 0xff, 0xf7, 0xff, 0xff, 0xff, 0x3f, 0x00, 0xfc,
   0xff, 0xff, 0xeb, 0xfe, 0xff, 0xb5, 0xd6, 0xef, 0xff, 0x7f, 0x00, 0x00,
   0x00, 0x00, 0x25, 0xee, 0xfb, 0xfe, 0xff, 0xfe, 0xff, 0x1f, 0x83, 0xfb,
   0xf7, 0xff, 0xff, 0xff, 0x3f, 0x00, 0xfc, 0xff, 0x6f, 0xff, 0xff, 0xff,
   0xfe, 0x7f, 0xff, 0xf6, 0x7f, 0x00, 0x00, 0x00, 0x00, 0x29, 0xbe, 0xdf,
   0x6b, 0xef, 0xff, 0xff, 0x1f, 0xe1, 0xfe, 0xff, 0xff, 0xff, 0xff, 0x3f,
   0x00, 0xfc, 0xff, 0xef, 0xdd, 0xfe, 0xff, 0xd7, 0xf6, 0xed, 0xff, 0x7f,
   0x00, 0x00, 0x00, 0x00, 0x41, 0x7e, 0x7b, 0xff, 0x7d, 0xf7, 0xff, 0x3f,
   0xbf, 0x7f, 0xff, 0xff, 0xff, 0xff, 0x7f, 0x00, 0xf8, 0xff, 0x7f, 0xf7,
   0xff, 0xff, 0xff, 0xdb, 0xfe, 0x7f, 0x7f, 0x00, 0x00, 0x00, 0x80, 0x54,
   0xfe, 0xdf, 0x6d, 0xd7, 0xfd, 0xff, 0xff, 0xff, 0xff, 0xff, 0xff, 0xff,
   0xff, 0x7f, 0x00, 0xf8, 0xff, 0xff, 0xdf, 0xfe, 0xff, 0x5f, 0xff, 0xf7,
   0xff, 0x7f, 0x00, 0x00, 0x00, 0x80, 0x41, 0x56, 0xfb, 0xff, 0xff, 0xdf,
   0xff, 0xff, 0xff, 0xdb, 0xff, 0xff, 0xff, 0xff, 0xff, 0x00, 0xf8, 0xff,
   0x7f, 0xfb, 0xff, 0xff, 0xff, 0xdb, 0xfe, 0xfb, 0x7f, 0x00, 0x00, 0x00,
   0x00, 0x33, 0xfe, 0xaf, 0x55, 0x5b, 0xfb, 0xff, 0xff, 0xff, 0xff, 0xcb,
   0xf7, 0xff, 0xff, 0xff, 0x01, 0xf8, 0xff, 0xff, 0xdf, 0xfe, 0xff, 0x7f,
   0xff, 0xdb, 0xff, 0x7f, 0x00, 0x00, 0x00, 0x00, 0x33, 0xfe, 0xfe, 0x7f,
   0xff, 0x6f, 0xff, 0xff, 0xff, 0xff, 0xc0, 0xff, 0xff, 0xff, 0xff, 0x01,
   0xfc, 0xff, 0xff, 0xf6, 0xff, 0xff, 0xff, 0x6b, 0xff, 0xef, 0x7f, 0x00,
   0x00, 0x00, 0x80, 0x10, 0xaf, 0xdb, 0xfe, 0x6d, 0xfd, 0xff, 0xff, 0xff,
   0x3b, 0xe0, 0xf7, 0xff, 0xff, 0xff, 0x03, 0xfc, 0xff, 0xff, 0x6f, 0xff,
   0xff, 0x7f, 0xff, 0xfb, 0xbf, 0x7f, 0x00, 0x00, 0x00, 0xc0, 0x22, 0x7e,
   0xff, 0xd7, 0xff, 0xdb, 0xfe, 0xff, 0xff, 0x3f, 0xe0, 0xee, 0xff, 0xff,
   0xff, 0x03, 0xfc, 0xff, 0xff, 0xff, 0xff, 0xff, 0xff, 0x5b, 0x7f, 0xff,
   0x7f, 0x00, 0x00, 0x00, 0xc0, 0x29, 0xff, 0xad, 0x7d, 0xdb, 0xff, 0xfb,
   0xff, 0xff, 0x07, 0xf2, 0xff, 0xff, 0xff, 0xff, 0x07, 0xfc, 0xff, 0xff,
   0xaf, 0xfe, 0xff, 0xff, 0xfb, 0xf6, 0xff, 0x7f, 0x00, 0x00, 0x00, 0x00,
   0x22, 0xb7, 0xff, 0xf7, 0xff, 0x56, 0xff, 0xff, 0xff, 0x01, 0xf0, 0x5b,
   0xff, 0xff, 0xff, 0x07, 0xfc, 0xff, 0xff, 0xff, 0xff, 0xff, 0xff, 0xef,
   0xff, 0xff, 0x7f, 0x00, 0x00, 0x00, 0x00, 0x19, 0xff, 0x5a, 0x5f, 0xb5,
   0xff, 0xfb, 0xff, 0xff, 0x00, 0xf8, 0xfe, 0xfd, 0xff, 0xff, 0x0f, 0xfe,
   0xff, 0xff, 0xff, 0xfe, 0xff, 0xff, 0x7f, 0xeb, 0xee, 0x7f, 0x00, 0x00,
   0x00, 0x40, 0x11, 0xd7, 0xff, 0xfb, 0xff, 0x76, 0x7f, 0xff, 0x2f, 0x48,
   0xf8, 0xb7, 0xd7, 0xff, 0xff, 0x0f, 0xfe, 0xff, 0xff, 0xdf, 0xff, 0xff,
   0xff, 0xdf, 0xbf, 0xff, 0x7f, 0x00, 0x00, 0x00, 0x40, 0x14, 0xff, 0xb6,
   0xde, 0xed, 0xdf, 0xfd, 0xfb, 0x03, 0x00, 0x78, 0xff, 0xfe, 0xff, 0xff,
   0x1f, 0xfe, 0xff, 0xff, 0xff, 0xfe, 0xff, 0xff, 0xff, 0xf6, 0xdd, 0x7f,
   0x00, 0x00, 0x00, 0xa0, 0x10, 0xff, 0xff, 0xbd, 0xbf, 0xfd, 0x7f, 0xff,
   0x07, 0x00, 0xf9, 0xed, 0x75, 0xff, 0xff, 0x1f, 0xfe, 0xff, 0xff, 0xbf,
   0xff, 0xff, 0xff, 0xff, 0xbf, 0xf7, 0x7f, 0x00, 0x00, 0x00, 0x40, 0x94,
   0x6f, 0xdb, 0xff, 0xf6, 0xb7, 0xfd, 0xff, 0x47, 0x00, 0xbc, 0xbf, 0xdf,
   0xff, 0xff, 0x1f, 0xfe, 0xff, 0xff, 0xff, 0xfe, 0xff, 0xff, 0xbf, 0xf6,
   0xfe, 0x7f, 0x00, 0x00, 0x00, 0x00, 0x08, 0xff, 0x7f, 0xeb, 0xbf, 0xfe,
   0xff, 0x6d, 0x0f, 0x12, 0xbc, 0xf5, 0xfd, 0xfa, 0xff, 0x1f, 0xfe, 0xff,
   0xff, 0xff, 0xff, 0xff, 0xff, 0xff, 0xdf, 0xd7, 0x7f, 0x00, 0x00, 0x00,
   0x00, 0x80, 0xb7, 0xf6, 0xbf, 0xed, 0xdb, 0x7d, 0xff, 0x0f, 0x00, 0xff,
   0xff, 0xff, 0xff, 0xff, 0x3f, 0xfe, 0xbf, 0xff, 0xff, 0xfd, 0xdf, 0xfd,
   0x6f, 0xb5, 0x7e, 0x7f, 0x00, 0x00, 0x00, 0x00, 0x00, 0xff, 0xbf, 0x6b,
   0x5b, 0x5b, 0xdf, 0xaa, 0x1a, 0x00, 0x00, 0x00, 0x00, 0x00, 0xf0, 0x00,
   0x00, 0x00, 0x00, 0x00, 0x00, 0x00, 0x00, 0x00, 0x00, 0x00, 0x00, 0x00,
   0x00, 0x00, 0x00, 0x80, 0x01, 0x00, 0x00, 0x00, 0x00, 0x00, 0x00, 0x00,
   0x00, 0x00, 0x00, 0x00, 0x00, 0x00, 0x00 };
